<mxfile host="Electron" agent="Mozilla/5.0 (Windows NT 10.0; Win64; x64) AppleWebKit/537.36 (KHTML, like Gecko) draw.io/26.0.16 Chrome/132.0.6834.196 Electron/34.2.0 Safari/537.36" version="26.0.16">
  <diagram name="Page-1" id="ZaKCo2e9F1DByGY8dCHB">
    <mxGraphModel dx="1036" dy="614" grid="1" gridSize="10" guides="1" tooltips="1" connect="1" arrows="1" fold="1" page="1" pageScale="1.2" pageWidth="850" pageHeight="1100" math="0" shadow="0">
      <root>
        <mxCell id="0" />
        <mxCell id="1" parent="0" />
        <mxCell id="fwS_RNYrMWiqNkEhWMYe-1" value="" style="rounded=0;whiteSpace=wrap;html=1;fillColor=none;dashed=1;" parent="1" vertex="1">
          <mxGeometry x="125" y="240" width="120" height="360" as="geometry" />
        </mxCell>
        <mxCell id="fwS_RNYrMWiqNkEhWMYe-2" value="&lt;b&gt;&lt;font style=&quot;font-size: 16px;&quot;&gt;Sources&lt;/font&gt;&lt;/b&gt;" style="rounded=0;whiteSpace=wrap;html=1;strokeColor=default;" parent="1" vertex="1">
          <mxGeometry x="145" y="200" width="80" height="30" as="geometry" />
        </mxCell>
        <mxCell id="fwS_RNYrMWiqNkEhWMYe-14" style="edgeStyle=orthogonalEdgeStyle;rounded=0;orthogonalLoop=1;jettySize=auto;html=1;" parent="1" source="fwS_RNYrMWiqNkEhWMYe-3" target="fwS_RNYrMWiqNkEhWMYe-8" edge="1">
          <mxGeometry relative="1" as="geometry" />
        </mxCell>
        <mxCell id="fwS_RNYrMWiqNkEhWMYe-15" style="edgeStyle=orthogonalEdgeStyle;rounded=0;orthogonalLoop=1;jettySize=auto;html=1;" parent="1" source="fwS_RNYrMWiqNkEhWMYe-3" target="fwS_RNYrMWiqNkEhWMYe-9" edge="1">
          <mxGeometry relative="1" as="geometry" />
        </mxCell>
        <mxCell id="fwS_RNYrMWiqNkEhWMYe-16" style="edgeStyle=orthogonalEdgeStyle;rounded=0;orthogonalLoop=1;jettySize=auto;html=1;entryX=0;entryY=0.5;entryDx=0;entryDy=0;" parent="1" source="fwS_RNYrMWiqNkEhWMYe-3" target="fwS_RNYrMWiqNkEhWMYe-10" edge="1">
          <mxGeometry relative="1" as="geometry" />
        </mxCell>
        <mxCell id="fwS_RNYrMWiqNkEhWMYe-3" value="&lt;b&gt;&lt;font style=&quot;font-size: 16px;&quot;&gt;CRM&lt;/font&gt;&lt;/b&gt;" style="image;aspect=fixed;html=1;points=[];align=center;fontSize=12;image=img/lib/azure2/general/Folder_Blank.svg;" parent="1" vertex="1">
          <mxGeometry x="154.7" y="318.5" width="65.3" height="53" as="geometry" />
        </mxCell>
        <mxCell id="fwS_RNYrMWiqNkEhWMYe-17" style="edgeStyle=orthogonalEdgeStyle;rounded=0;orthogonalLoop=1;jettySize=auto;html=1;entryX=0;entryY=0.5;entryDx=0;entryDy=0;" parent="1" source="fwS_RNYrMWiqNkEhWMYe-4" target="fwS_RNYrMWiqNkEhWMYe-11" edge="1">
          <mxGeometry relative="1" as="geometry" />
        </mxCell>
        <mxCell id="fwS_RNYrMWiqNkEhWMYe-18" style="edgeStyle=orthogonalEdgeStyle;rounded=0;orthogonalLoop=1;jettySize=auto;html=1;entryX=0;entryY=0.5;entryDx=0;entryDy=0;" parent="1" source="fwS_RNYrMWiqNkEhWMYe-4" target="fwS_RNYrMWiqNkEhWMYe-12" edge="1">
          <mxGeometry relative="1" as="geometry" />
        </mxCell>
        <mxCell id="fwS_RNYrMWiqNkEhWMYe-19" style="edgeStyle=orthogonalEdgeStyle;rounded=0;orthogonalLoop=1;jettySize=auto;html=1;entryX=0;entryY=0.5;entryDx=0;entryDy=0;" parent="1" source="fwS_RNYrMWiqNkEhWMYe-4" target="fwS_RNYrMWiqNkEhWMYe-13" edge="1">
          <mxGeometry relative="1" as="geometry" />
        </mxCell>
        <mxCell id="fwS_RNYrMWiqNkEhWMYe-4" value="&lt;font style=&quot;font-size: 16px;&quot;&gt;&lt;b&gt;ERP&lt;/b&gt;&lt;/font&gt;" style="image;aspect=fixed;html=1;points=[];align=center;fontSize=12;image=img/lib/azure2/general/Folder_Blank.svg;" parent="1" vertex="1">
          <mxGeometry x="155" y="488.63" width="65" height="52.75" as="geometry" />
        </mxCell>
        <mxCell id="fwS_RNYrMWiqNkEhWMYe-5" value="" style="rounded=1;whiteSpace=wrap;html=1;fillColor=none;strokeColor=#d79b00;" parent="1" vertex="1">
          <mxGeometry x="315" y="260" width="170" height="340" as="geometry" />
        </mxCell>
        <mxCell id="fwS_RNYrMWiqNkEhWMYe-6" value="&lt;font style=&quot;font-size: 15px;&quot;&gt;Bronze Layer&lt;/font&gt;" style="rounded=1;whiteSpace=wrap;html=1;fontStyle=1;fillColor=#ffe6cc;strokeColor=#d79b00;" parent="1" vertex="1">
          <mxGeometry x="325" y="220" width="150" height="30" as="geometry" />
        </mxCell>
        <mxCell id="_0ZlDbrnNXBeYlR7TSvm-9" style="edgeStyle=orthogonalEdgeStyle;rounded=0;orthogonalLoop=1;jettySize=auto;html=1;" parent="1" source="fwS_RNYrMWiqNkEhWMYe-8" target="_0ZlDbrnNXBeYlR7TSvm-3" edge="1">
          <mxGeometry relative="1" as="geometry" />
        </mxCell>
        <mxCell id="fwS_RNYrMWiqNkEhWMYe-8" value="crm_sales_details" style="rounded=1;whiteSpace=wrap;html=1;fillColor=#ffe6cc;strokeColor=#d79b00;" parent="1" vertex="1">
          <mxGeometry x="335" y="290" width="130" height="30" as="geometry" />
        </mxCell>
        <mxCell id="_0ZlDbrnNXBeYlR7TSvm-10" style="edgeStyle=orthogonalEdgeStyle;rounded=0;orthogonalLoop=1;jettySize=auto;html=1;entryX=0;entryY=0.5;entryDx=0;entryDy=0;" parent="1" source="fwS_RNYrMWiqNkEhWMYe-9" target="_0ZlDbrnNXBeYlR7TSvm-4" edge="1">
          <mxGeometry relative="1" as="geometry" />
        </mxCell>
        <mxCell id="fwS_RNYrMWiqNkEhWMYe-9" value="crm_cust_info" style="rounded=1;whiteSpace=wrap;html=1;fillColor=#ffe6cc;strokeColor=#d79b00;" parent="1" vertex="1">
          <mxGeometry x="335" y="330" width="130" height="30" as="geometry" />
        </mxCell>
        <mxCell id="_0ZlDbrnNXBeYlR7TSvm-11" style="edgeStyle=orthogonalEdgeStyle;rounded=0;orthogonalLoop=1;jettySize=auto;html=1;" parent="1" source="fwS_RNYrMWiqNkEhWMYe-10" target="_0ZlDbrnNXBeYlR7TSvm-5" edge="1">
          <mxGeometry relative="1" as="geometry" />
        </mxCell>
        <mxCell id="fwS_RNYrMWiqNkEhWMYe-10" value="crm_prd_info" style="rounded=1;whiteSpace=wrap;html=1;fillColor=#ffe6cc;strokeColor=#d79b00;" parent="1" vertex="1">
          <mxGeometry x="335" y="370" width="130" height="30" as="geometry" />
        </mxCell>
        <mxCell id="_0ZlDbrnNXBeYlR7TSvm-12" style="edgeStyle=orthogonalEdgeStyle;rounded=0;orthogonalLoop=1;jettySize=auto;html=1;" parent="1" source="fwS_RNYrMWiqNkEhWMYe-11" target="_0ZlDbrnNXBeYlR7TSvm-6" edge="1">
          <mxGeometry relative="1" as="geometry" />
        </mxCell>
        <mxCell id="fwS_RNYrMWiqNkEhWMYe-11" value="erp_cust_az12" style="rounded=1;whiteSpace=wrap;html=1;fillColor=#ffe6cc;strokeColor=#d79b00;" parent="1" vertex="1">
          <mxGeometry x="335" y="460" width="130" height="30" as="geometry" />
        </mxCell>
        <mxCell id="_0ZlDbrnNXBeYlR7TSvm-13" style="edgeStyle=orthogonalEdgeStyle;rounded=0;orthogonalLoop=1;jettySize=auto;html=1;entryX=0;entryY=0.5;entryDx=0;entryDy=0;" parent="1" source="fwS_RNYrMWiqNkEhWMYe-12" target="_0ZlDbrnNXBeYlR7TSvm-7" edge="1">
          <mxGeometry relative="1" as="geometry">
            <mxPoint x="505" y="530" as="targetPoint" />
          </mxGeometry>
        </mxCell>
        <mxCell id="fwS_RNYrMWiqNkEhWMYe-12" value="erp_loc_a101" style="rounded=1;whiteSpace=wrap;html=1;fillColor=#ffe6cc;strokeColor=#d79b00;" parent="1" vertex="1">
          <mxGeometry x="335" y="500" width="130" height="30" as="geometry" />
        </mxCell>
        <mxCell id="_0ZlDbrnNXBeYlR7TSvm-16" style="edgeStyle=orthogonalEdgeStyle;rounded=0;orthogonalLoop=1;jettySize=auto;html=1;entryX=0;entryY=0.5;entryDx=0;entryDy=0;" parent="1" source="fwS_RNYrMWiqNkEhWMYe-13" target="_0ZlDbrnNXBeYlR7TSvm-8" edge="1">
          <mxGeometry relative="1" as="geometry" />
        </mxCell>
        <mxCell id="fwS_RNYrMWiqNkEhWMYe-13" value="erp_px_cat_g1v2" style="rounded=1;whiteSpace=wrap;html=1;fillColor=#ffe6cc;strokeColor=#d79b00;" parent="1" vertex="1">
          <mxGeometry x="335" y="540" width="130" height="30" as="geometry" />
        </mxCell>
        <mxCell id="_0ZlDbrnNXBeYlR7TSvm-1" value="" style="rounded=1;whiteSpace=wrap;html=1;fillColor=none;strokeColor=#d79b00;" parent="1" vertex="1">
          <mxGeometry x="525" y="260" width="170" height="340" as="geometry" />
        </mxCell>
        <mxCell id="_0ZlDbrnNXBeYlR7TSvm-2" value="&lt;font style=&quot;font-size: 15px;&quot;&gt;&lt;font style=&quot;&quot;&gt;Silver&amp;nbsp;&lt;/font&gt;&lt;span style=&quot;background-color: transparent; color: light-dark(rgb(51, 51, 51), rgb(193, 193, 193));&quot;&gt;Layer&lt;/span&gt;&lt;/font&gt;" style="rounded=1;whiteSpace=wrap;html=1;fontStyle=1;fillColor=#f5f5f5;strokeColor=#666666;fontColor=#333333;" parent="1" vertex="1">
          <mxGeometry x="535" y="220" width="150" height="30" as="geometry" />
        </mxCell>
        <mxCell id="_0ZlDbrnNXBeYlR7TSvm-3" value="crm_sales_details" style="rounded=1;whiteSpace=wrap;html=1;fillColor=#f5f5f5;strokeColor=#666666;fontColor=#333333;" parent="1" vertex="1">
          <mxGeometry x="545" y="290" width="130" height="30" as="geometry" />
        </mxCell>
        <mxCell id="_0ZlDbrnNXBeYlR7TSvm-4" value="crm_cust_info" style="rounded=1;whiteSpace=wrap;html=1;fillColor=#f5f5f5;strokeColor=#666666;fontColor=#333333;" parent="1" vertex="1">
          <mxGeometry x="545" y="330" width="130" height="30" as="geometry" />
        </mxCell>
        <mxCell id="_0ZlDbrnNXBeYlR7TSvm-5" value="crm_prd_info" style="rounded=1;whiteSpace=wrap;html=1;fillColor=#f5f5f5;strokeColor=#666666;fontColor=#333333;" parent="1" vertex="1">
          <mxGeometry x="545" y="370" width="130" height="30" as="geometry" />
        </mxCell>
        <mxCell id="_0ZlDbrnNXBeYlR7TSvm-6" value="erp_cust_az12" style="rounded=1;whiteSpace=wrap;html=1;fillColor=#f5f5f5;strokeColor=#666666;fontColor=#333333;" parent="1" vertex="1">
          <mxGeometry x="545" y="460" width="130" height="30" as="geometry" />
        </mxCell>
        <mxCell id="_0ZlDbrnNXBeYlR7TSvm-7" value="erp_loc_a101" style="rounded=1;whiteSpace=wrap;html=1;fillColor=#f5f5f5;strokeColor=#666666;fontColor=#333333;" parent="1" vertex="1">
          <mxGeometry x="545" y="500" width="130" height="30" as="geometry" />
        </mxCell>
        <mxCell id="_0ZlDbrnNXBeYlR7TSvm-8" value="erp_px_cat_g1v2" style="rounded=1;whiteSpace=wrap;html=1;fillColor=#f5f5f5;strokeColor=#666666;fontColor=#333333;" parent="1" vertex="1">
          <mxGeometry x="545" y="540" width="130" height="30" as="geometry" />
        </mxCell>
        <mxCell id="CO1GC_R9TyiMYWNJ-WQj-1" value="" style="rounded=1;whiteSpace=wrap;html=1;fillColor=none;strokeColor=#d79b00;" vertex="1" parent="1">
          <mxGeometry x="725" y="260" width="170" height="340" as="geometry" />
        </mxCell>
        <mxCell id="CO1GC_R9TyiMYWNJ-WQj-2" value="&lt;font style=&quot;font-size: 15px;&quot;&gt;&lt;span style=&quot;background-color: transparent;&quot;&gt;Gold&amp;nbsp;&lt;/span&gt;&lt;span style=&quot;background-color: transparent; color: light-dark(rgb(51, 51, 51), rgb(193, 193, 193));&quot;&gt;Layer&lt;/span&gt;&lt;/font&gt;" style="rounded=1;whiteSpace=wrap;html=1;fontStyle=1;fillColor=#FFFFCC;strokeColor=#36393d;" vertex="1" parent="1">
          <mxGeometry x="735" y="220" width="150" height="30" as="geometry" />
        </mxCell>
        <mxCell id="CO1GC_R9TyiMYWNJ-WQj-3" value="dim_customers" style="rounded=1;whiteSpace=wrap;html=1;fillColor=#FFFFCC;strokeColor=#36393d;" vertex="1" parent="1">
          <mxGeometry x="745" y="415" width="130" height="30" as="geometry" />
        </mxCell>
        <mxCell id="CO1GC_R9TyiMYWNJ-WQj-4" value="dim_products" style="rounded=1;whiteSpace=wrap;html=1;fillColor=#FFFFCC;strokeColor=#36393d;" vertex="1" parent="1">
          <mxGeometry x="745" y="530" width="130" height="30" as="geometry" />
        </mxCell>
        <mxCell id="CO1GC_R9TyiMYWNJ-WQj-9" value="fact_sales" style="rounded=1;whiteSpace=wrap;html=1;fillColor=#FFFFCC;strokeColor=#36393d;" vertex="1" parent="1">
          <mxGeometry x="745" y="310" width="130" height="30" as="geometry" />
        </mxCell>
        <mxCell id="CO1GC_R9TyiMYWNJ-WQj-11" value="" style="endArrow=classic;html=1;rounded=0;exitX=1;exitY=0.5;exitDx=0;exitDy=0;entryX=0;entryY=0.5;entryDx=0;entryDy=0;" edge="1" parent="1" source="_0ZlDbrnNXBeYlR7TSvm-3" target="CO1GC_R9TyiMYWNJ-WQj-9">
          <mxGeometry width="50" height="50" relative="1" as="geometry">
            <mxPoint x="695" y="350" as="sourcePoint" />
            <mxPoint x="745" y="300" as="targetPoint" />
          </mxGeometry>
        </mxCell>
        <mxCell id="CO1GC_R9TyiMYWNJ-WQj-12" value="" style="endArrow=classic;html=1;rounded=0;exitX=1;exitY=0.5;exitDx=0;exitDy=0;entryX=0;entryY=0.5;entryDx=0;entryDy=0;" edge="1" parent="1" target="CO1GC_R9TyiMYWNJ-WQj-3">
          <mxGeometry width="50" height="50" relative="1" as="geometry">
            <mxPoint x="675" y="350" as="sourcePoint" />
            <mxPoint x="745" y="370" as="targetPoint" />
          </mxGeometry>
        </mxCell>
        <mxCell id="CO1GC_R9TyiMYWNJ-WQj-13" value="" style="endArrow=classic;html=1;rounded=0;exitX=1;exitY=0.5;exitDx=0;exitDy=0;entryX=0;entryY=0.5;entryDx=0;entryDy=0;" edge="1" parent="1" source="_0ZlDbrnNXBeYlR7TSvm-6" target="CO1GC_R9TyiMYWNJ-WQj-3">
          <mxGeometry width="50" height="50" relative="1" as="geometry">
            <mxPoint x="675" y="470" as="sourcePoint" />
            <mxPoint x="745" y="550" as="targetPoint" />
          </mxGeometry>
        </mxCell>
        <mxCell id="CO1GC_R9TyiMYWNJ-WQj-14" value="" style="endArrow=classic;html=1;rounded=0;exitX=1;exitY=0.5;exitDx=0;exitDy=0;entryX=0;entryY=0.75;entryDx=0;entryDy=0;" edge="1" parent="1" source="_0ZlDbrnNXBeYlR7TSvm-7" target="CO1GC_R9TyiMYWNJ-WQj-3">
          <mxGeometry width="50" height="50" relative="1" as="geometry">
            <mxPoint x="685" y="505" as="sourcePoint" />
            <mxPoint x="755" y="460" as="targetPoint" />
          </mxGeometry>
        </mxCell>
        <mxCell id="CO1GC_R9TyiMYWNJ-WQj-15" value="" style="endArrow=classic;html=1;rounded=0;exitX=1;exitY=0.5;exitDx=0;exitDy=0;entryX=0;entryY=0.5;entryDx=0;entryDy=0;" edge="1" parent="1" source="_0ZlDbrnNXBeYlR7TSvm-5" target="CO1GC_R9TyiMYWNJ-WQj-4">
          <mxGeometry width="50" height="50" relative="1" as="geometry">
            <mxPoint x="675" y="390" as="sourcePoint" />
            <mxPoint x="745" y="470" as="targetPoint" />
          </mxGeometry>
        </mxCell>
        <mxCell id="CO1GC_R9TyiMYWNJ-WQj-16" value="" style="endArrow=classic;html=1;rounded=0;exitX=1;exitY=0.5;exitDx=0;exitDy=0;entryX=0;entryY=0.5;entryDx=0;entryDy=0;" edge="1" parent="1" source="_0ZlDbrnNXBeYlR7TSvm-8" target="CO1GC_R9TyiMYWNJ-WQj-4">
          <mxGeometry width="50" height="50" relative="1" as="geometry">
            <mxPoint x="725" y="530" as="sourcePoint" />
            <mxPoint x="795" y="690" as="targetPoint" />
          </mxGeometry>
        </mxCell>
      </root>
    </mxGraphModel>
  </diagram>
</mxfile>
